# xmcd
#
# Track frame offsets:
#	150
#	15638
#	33788
#	54420
#	65245
#	75199
#	87682
#	97266
#	111742
#	127579
#	141678
#	156676
#	171516
#	186725
#	198626
#	212108
#	228014
#	243458
#	257751
#	270458
#	283469
#
# Disc length: 3946 seconds
#
# Revision: 0
# Processed by: cddbd v1.5.2PL0 Copyright (c) Steve Scherf et al.
# Submitted via: EZCDAudioConverter 4.0.5.1
#
DISCID=4d0f6815
DTITLE=Multi Music Group - Hott Urban # 50
DYEAR=2019
DGENRE=rap
TTITLE0=Drake ft. Rick Ross - Money In The Grave
TTITLE1=Chris Brown ft. Drake - No Guidance
TTITLE2=DJ Khaled ft. Meek Mill, J. Balvin, Lil Baby and Jeremih - You Stay
TTITLE3=Cardi B - Press\n
TTITLE4=Shordie Shordie - Betchua (Bitchuary)
TTITLE5=Tory Lanez ft. Quavo and Tyga - Broke Leg
TTITLE6=Saweetie - My Type
TTITLE7=Tyler, The Creator - Earfquake
TTITLE8=Ball Greezy ft. Lyriq Tye - I'm In Love
TTITLE9=ScHoolboy Q ft. 21 Savage - Floating
TTITLE10=Young Thug ft. J. Cole and Travis Scott - The London
TTITLE11=YFN Lucci ft. Trey Songz - All Night Long
TTITLE12=Dinah Jane - Heard It All Before
TTITLE13=Tyga - Damn
TTITLE14=Marlo ft. City Girls and Offset - Soakin Wet
TTITLE15=Jhene Aiko - Triggered (Freestyle)
TTITLE16=London On Da Track and G-Eazy ft. City Girls and Juvenile - Throw Fits
TTITLE17=Koffee - Toast
TTITLE18=PJ - One Missed Call
TTITLE19=Kiana Lede ft Offset - Bouncin
TTITLE20=Lil Duval ft. Charlamagne Tha God - Black Men Don't Cheat
EXTD=
EXTT0=
EXTT1=
EXTT2=
EXTT3=
EXTT4=
EXTT5=
EXTT6=
EXTT7=
EXTT8=
EXTT9=
EXTT10=
EXTT11=
EXTT12=
EXTT13=
EXTT14=
EXTT15=
EXTT16=
EXTT17=
EXTT18=
EXTT19=
EXTT20=
PLAYORDER=
